#!OML:ASF E:/inclinewalkrobotboard/Project1/Captureday1/Session1/subject1.ASF
:FULLY-SPECIFIED
:DEGREES
301
root 0 0 0 -3.8439606910825965 -0.41603192343097817 1.5404030535332147
lowerback 11.910475886113847 -0.2933876053867843 -2.141807545933058
upperback 1.4118447353364179 -0.5254558564421883 1.0553834287909558
thorax -5.189312688694578 -0.17977927494820034 2.3235544181768812
lowerneck -17.4318120543143 -3.052828085010857 -2.2616901724015475
upperneck 18.002776436192043 -3.5461838718939265 -0.08656617592203375
head 8.374575623095568 -1.8442687207784045 -0.04973683504767901
rclavicle 3.4136908977067816E-15 1.0010833905586785E-15
rhumerus -49.14401989930112 -18.381488456577266 -72.92769395394222
rradius 24.623677072509565
rwrist -1.8202935725504794
rhand -22.031659360486735 28.316978773833895
rfingers 7.12502000000006
rthumb 4.3630484351127805 -1.9704340403127283
lclavicle -1.859654120690413E-15 -7.839426335508073E-15
lhumerus -38.0527831394815 0.032412841296681094 84.41915607747409
lradius 27.947657288462175
lwrist 6.369411309745395
lhand -32.2852602653828 22.880957586124236
lfingers 7.12502000000004
lthumb -5.447767139759961 53.67429629151426
rfemur -26.73582176649164 24.389427949295168 38.9344746378471
rtibia 25.118126340745718
rfoot -9.325342212491371 -12.59617142824775
rtoes -4.87877949876118
lfemur -0.8219678812101208 -6.3232724405474965 -22.291999911789482
ltibia 20.230541014709196
lfoot -10.053503977313474 -0.8682901989722289
ltoes -7.000029048838668
302
root 0 0 0 -3.381564692738923 1.231821137888609 2.286043419112964
lowerback 11.776733164375603 -0.630743953995506 -3.0521943250587578
upperback 1.289924899311158 -1.0625291607748217 1.03234616015847
thorax -5.228642979232815 -0.43325041878242 2.879967986030267
lowerneck -17.5024677177682 -2.9435238924150733 -2.3651044275441913
upperneck 17.774638013984507 -3.3115638614215444 -0.2609970936433639
head 8.296200538779965 -1.7569053043159846 -0.0628735023695357
rclavicle 3.3586200709035626E-15 1.0779920511828636E-15
rhumerus -49.530349436685206 -18.507403042137533 -72.79174010400135
rradius 24.357038564384673
rwrist -1.6220887930233552
rhand -21.934003421475637 28.22560849250563
rfingers 7.125020000000058
rthumb 4.452763349331761 -2.0553471040312132
lclavicle -1.1422551737123808E-15 -8.085385532056924E-15
lhumerus -37.14897691548835 -0.5875231668978049 84.2427956261461
lradius 28.374539458359607
lwrist 7.3218135417357715
lhand -32.09863381152445 23.47039100514419
lfingers 7.125020000000041
lthumb -5.272886729045059 54.23053144056465
rfemur -27.639813719823124 26.045869442090066 40.008374975354045
rtibia 24.438808841196106
rfoot -9.005331080804279 -12.904965354044005
rtoes -4.5810702343748915
lfemur 0.6508574095764956 -6.068363807863106 -22.779779376527173
ltibia 21.205853247148045
lfoot -9.805647581338576 -1.3807174831751432
ltoes -7.454868328935367
303
root 0 0 0 -3.306308392024139 2.617464689992648 2.581285432850537
lowerback 11.721331412908896 -0.821595650972162 -3.4872661858978855
upperback 1.253109828622014 -1.3466905042863784 1.0371962838548685
thorax -5.21250457713074 -0.568981509698143 3.164583395713407
lowerneck -17.595605012303167 -2.8959440907408958 -2.4446616742904443
upperneck 17.665003708178613 -3.1972104541223176 -0.32243569506638803
head 8.28291599718275 -1.71302288312059 -0.06569405069207668
rclavicle 3.2706190396652757E-15 1.1866145743697612E-15
rhumerus -49.90269528763121 -18.64592496064645 -72.74511732446743
rradius 24.086741302638004
rwrist -1.4801364295980584
rhand -21.816636273448847 28.107500604926614
rfingers 7.125020000000057
rthumb 4.562133952191818 -2.1657988830862873
lclavicle -5.759172841864304E-16 -8.158597934563732E-15
lhumerus -36.2585446408813 -1.0752800719212416 84.12815628920333
lradius 28.69547884180225
lwrist 8.06867604590759
lhand -31.911881754764167 23.949858639237117
lfingers 7.125020000000041
lthumb -5.097958714351918 54.6801904012406
rfemur -28.37061923387354 27.356200464596043 40.861954567795294
rtibia 23.953960504039255
rfoot -8.652665660420576 -13.239533688192555
rtoes -4.2576046579247375
lfemur 1.8800835184422198 -5.7715128910237095 -23.118055659359374
ltibia 22.418581387634415
lfoot -9.380341009187282 -2.0007348617711784
ltoes -7.970827182852519
304
root 0 0 0 -3.346389878067896 3.4483266845362017 2.6638676684223075
lowerback 11.696211255377133 -0.914113021316656 -3.6652162571187725
upperback 1.2479010461812994 -1.4774594303714397 1.0483171358484682
thorax -5.187280841468398 -0.6325907993597217 3.2931111308973002
lowerneck -17.65882082534882 -2.8791492254710063 -2.489585572545117
upperneck 17.627256364217367 -3.151524668206104 -0.33635908180702323
head 8.291641881847294 -1.6945229328695284 -0.06565307466313453
rclavicle 3.1696545261866268E-15 1.2927846030422916E-15
rhumerus -50.196508681486556 -18.77107096623495 -72.79777351777645
rradius 23.869163100792534
rwrist -1.4353617930508165
rhand -21.69998405044993 27.987838331236773
rfingers 7.125020000000056
rthumb 4.672199484931827 -2.277375064805602
lclavicle -2.6992201736617536E-16 -8.12100038114047E-15
lhumerus -35.596760851948744 -1.3672752021410215 84.09643476349255
lradius 28.871376741200706
lwrist 8.525853191189494
lhand -31.767812271261874 24.245700533497327
lfingers 7.125020000000041
lthumb -4.9627647896815645 54.95499279377539
rfemur -28.800189601489862 28.1366015226871 41.378799455311835
rtibia 23.68461664648191
rfoot -8.38856647067515 -13.470923190069968
rtoes -3.991234050911043
lfemur 2.5824453069848587 -5.486367850383578 -23.251967412164564
ltibia 23.758528210397884
lfoot -8.82686076325039 -2.651027510926532
ltoes -8.478411888040883
